<?xml version="1.0" encoding="utf-8"?>
<!-- Generator: Adobe Illustrator 26.3.1, SVG Export Plug-In . SVG Version: 6.00 Build 0)  -->
<svg version="1.1" id="Layer_1" xmlns="http://www.w3.org/2000/svg" xmlns:xlink="http://www.w3.org/1999/xlink" x="0px" y="0px"
	 viewBox="-17550.311 2914.146 1391.722 1361.728" enable-background="new -17550.311 2914.146 1391.722 1361.728"
	 xml:space="preserve">
<g>
	<path fill="#01D293" d="M-15425.299,1592.825c-2.493-3.08-4.42-6.153-6.147-9.617v-0.19l-0.389-0.772l-0.391-0.766l-0.185-0.19
		l-0.389-0.964v-0.19c-2.501-5.965-3.654-12.111-3.847-18.26l-0.19-0.198v-0.956v-0.574v-0.58v-0.767l0.19-0.389
		c0.192-6.154,1.346-12.302,3.847-18.267l0,0l0.389-0.956l0.185-0.389l0.391-0.765l0.389-0.765v-0.199
		c1.728-3.266,3.654-6.531,6.147-9.605l191.968-249.332c17.699-22.877,50.589-27.106,73.48-9.42
		c22.889,17.686,27.125,50.557,9.42,73.434l-167.918,217.998l167.918,217.991c17.705,22.877,13.469,55.741-9.42,73.435
		c-22.892,17.679-55.781,13.456-73.48-9.421L-15425.299,1592.825z"/>
	<path fill="#01D293" d="M-15546.86,1644.53L-15546.86,1644.53L-15546.86,1644.53v-0.185c3.845-3.853,8.271-6.927,12.89-9.235
		v-0.186l1.147-0.381v-0.199l0.964-0.382l0.771-0.383h0.19l0.964-0.383l0.19-0.198c5.772-2.309,12.118-3.654,18.272-3.839h0.192
		h0.771h0.956h0.198h1.154h0.191c6.543,0.185,13.08,1.728,19.427,4.42h0.191l0.771,0.383l0.574,0.382l0.383,0.199l0.964,0.381
		l0.197,0.186c4.617,2.309,8.846,5.383,12.691,9.235v0.185l0,0l0,0c1.927,1.728,3.655,3.852,5.198,5.963l81.164,105.349
		c17.699,22.878,13.471,55.741-9.419,73.235c-22.891,17.693-55.782,13.457-73.48-9.42l-40.391-52.482l-40.397,52.482
		c-17.692,22.877-50.589,27.113-73.474,9.42c-22.89-17.494-27.125-50.357-9.434-73.235l80.98-105.349
		C-15550.515,1648.382-15548.788,1646.258-15546.86,1644.53L-15546.86,1644.53z"/>
	<path fill="#01D293" d="M-15573.406,1549.954c10.581,27.105-2.69,57.477-29.619,68.044c-27.125,10.384-57.516-2.876-68.097-29.789
		c-4.044-10.568-7.309-21.724-9.426-33.446c-2.31-11.729-3.457-23.259-3.457-34.605c0-51.52,20.964-98.039,54.62-131.873
		c33.669-33.452,80.215-54.211,131.761-54.211v-0.191c12.31,0,24.435,1.147,36.36,3.457c12.111,2.5,23.854,6.154,35.199,10.766
		c26.736,11.147,39.436,41.717,28.272,68.433c-11.153,26.729-41.741,39.407-68.471,28.458c-4.817-2.118-9.816-3.656-15.2-4.618
		c-5-1.147-10.382-1.537-16.161-1.537v-0.192c-22.31,0-42.7,9.038-57.509,24.025c-14.619,14.618-23.854,34.989-23.854,57.483
		c0,5.574,0.58,10.765,1.346,15.383C-15576.678,1540.343-15575.332,1545.146-15573.406,1549.954L-15573.406,1549.954z"/>
	<path fill="#141515" d="M-14328.316,1592.246c-17.698-22.878-13.463-55.748,9.427-73.435c22.892-17.685,55.781-13.457,73.474,9.42
		l192.74,249.906c17.5,22.877,13.463,55.741-9.427,73.435c-22.89,17.679-55.781,13.456-73.48-9.421L-14328.316,1592.246z"/>
	<path fill="#141515" d="M-14453.73,1713.359c-17.501-22.878-13.272-55.755,9.617-73.248c22.892-17.681,55.782-13.458,73.282,9.419
		l81.943,106.311c17.698,22.878,13.471,55.741-9.42,73.235c-22.89,17.693-55.781,13.457-73.479-9.42L-14453.73,1713.359z"/>
	<path fill="#141515" d="M-14245.416,1592.246c-17.692,22.876-50.582,26.914-73.474,9.42c-22.89-17.687-27.125-50.556-9.427-73.434
		l192.733-250.097c17.699-22.877,50.591-27.106,73.48-9.42c22.89,17.686,26.927,50.557,9.427,73.434L-14245.416,1592.246z"/>
	<path fill="#141515" d="M-14453.73,1649.53c17.698-22.877,50.589-27.1,73.48-9.419c22.89,17.493,27.118,50.37,9.419,73.248
		l-81.745,106.298c-17.691,22.877-50.59,27.113-73.479,9.42c-22.891-17.494-27.118-50.357-9.427-73.235L-14453.73,1649.53z"/>
	<path fill="#141515" d="M-14475.849,1549.954c10.581,27.105-2.692,57.477-29.625,68.044c-26.929,10.384-57.517-2.876-67.898-29.789
		c-4.236-10.568-7.502-21.724-9.619-33.446c-2.309-11.729-3.463-23.259-3.463-34.605c0-51.52,20.971-98.039,54.627-131.873
		c33.669-33.452,80.215-54.211,131.761-54.211v-0.191c12.309,0,24.433,1.147,36.36,3.457c12.111,2.5,24.037,6.154,35.199,10.766
		c26.729,11.147,39.427,41.717,28.272,68.433c-10.963,26.729-41.743,39.407-68.473,28.458c-4.815-2.118-9.816-3.656-15.007-4.618
		c-5.191-1.147-10.581-1.537-16.353-1.537v-0.192c-22.31,0-42.7,9.038-57.51,24.025c-14.618,14.618-23.854,34.989-23.854,57.483
		c0,5.574,0.581,10.765,1.347,15.383C-14479.12,1540.343-14477.775,1545.146-14475.849,1549.954L-14475.849,1549.954z"/>
	<path fill-rule="evenodd" clip-rule="evenodd" fill="#141515" d="M-13132.47,1321.573c64.245,0,123.871,20.001,172.924,54.026
		l-150.805,195.695c-2.31,3.073-4.419,6.346-5.964,9.803l-0.19,0.382l-0.192,0.581l-0.383,0.765l0,0
		c-2.308,5.384-3.462,10.957-3.462,16.531h-0.192v0.963v0.58v0.384v0.963l0.192,0.185c0,5.581,1.345,11.148,3.462,16.346l0,0
		l0.383,0.964l0.192,0.383l0.19,0.382l0.389,0.964l0,0c1.538,3.073,3.464,5.95,5.575,8.641l172.732,224.153
		c0.771,1.148,1.734,2.309,2.69,3.272c-53.28,45.358-122.143,72.655-197.542,72.655c-168.306,0-304.492-136.102-304.492-304.302
		C-13436.962,1457.873-13300.775,1321.573-13132.47,1321.573L-13132.47,1321.573z M-13243.458,1591.665
		c9.428,24.224-2.499,51.52-26.735,61.137c-24.236,9.421-51.552-2.506-60.973-26.729c-3.853-9.604-6.734-19.604-8.661-30.172
		c-2.11-10.384-3.074-20.95-3.074-31.149c0-46.13,18.655-88.039,49.047-118.41c30.198-30.185,72.134-48.828,118.487-48.828v-0.198
		c11.162,0,21.934,1.162,32.706,3.272c10.963,2.111,21.538,5.383,31.546,9.612c24.037,9.994,35.582,37.488,25.58,61.514
		c-10,24.031-37.699,35.37-61.743,25.567c-4.235-1.926-8.655-3.272-13.464-4.228c-4.618-0.957-9.427-1.346-14.625-1.346v-0.191
		c-20,0-38.272,8.265-51.737,21.532c-13.271,13.259-21.353,31.525-21.353,51.704c0,5.198,0.383,9.81,1.154,13.847
		C-13246.531,1583.018-13245.185,1587.443-13243.458,1591.665L-13243.458,1591.665z M-13219.604,1676.644
		c3.847-3.854,8.081-6.729,12.502-9.038h0.19l0.771-0.383l0.575-0.396h0.389l0.765-0.383h0.197
		c4.811-2.111,10.002-3.259,15.193-3.654h0.19h0.964h0.382h0.581h0.963l0,0c6.347,0,12.692,1.345,18.655,4.037h0.191l0.771,0.396
		l0.383,0.185l0.39,0.198c4.611,2.309,8.846,5.185,12.5,9.038l0,0l0,0l0,0c1.729,1.727,3.272,3.456,4.618,5.382l72.899,94.569
		c15.963,20.568,12.117,50.174-8.464,65.939c-20.582,15.95-50.009,12.111-65.979-8.457l-36.355-47.1l-36.354,47.1
		c-15.772,20.568-45.392,24.407-65.973,8.457c-20.581-15.766-24.428-45.371-8.463-65.939l72.898-94.569
		c1.154-1.742,2.501-3.087,3.846-4.617l0,0L-13219.604,1676.644L-13219.604,1676.644L-13219.604,1676.644z"/>
	<rect x="-14867.094" y="1378.476" fill-rule="evenodd" clip-rule="evenodd" fill="#141515" width="5.001" height="372.946"/>
	<rect x="-13762.802" y="1378.476" fill-rule="evenodd" clip-rule="evenodd" fill="#141515" width="5.191" height="372.946"/>
</g>
<polygon fill="#01D293" points="-15618.766,2349.563 -16797.766,2349.563 -16797.766,832.062 -15618.766,832.062 
	-16090.868,1600.062 "/>
<path fill-rule="evenodd" clip-rule="evenodd" fill="#01D293" d="M-12890.874,1440.761c39.427,51.335,62.897,115.533,62.897,185.128
	c0,58.248-16.353,112.458-44.625,158.78l-141.57-183.77L-12890.874,1440.761z"/>
<path fill-rule="evenodd" clip-rule="evenodd" fill="#FCFCFC" d="M-16854.451,3064.26c118.99,0,229.426,37.044,320.277,100.064
	l-279.309,362.453c-4.277,5.692-8.186,11.753-11.047,18.156l-0.352,0.707l-0.357,1.076l-0.709,1.416l0,0
	c-4.273,9.971-6.412,20.294-6.412,30.618h-0.355v1.783v1.074v0.711v1.783l0.355,0.342c0,10.337,2.49,20.648,6.412,30.274l0,0
	l0.709,1.785l0.357,0.709l0.352,0.707l0.721,1.785l0,0c2.848,5.692,6.414,11.021,10.326,16.003l319.922,415.161
	c1.43,2.127,3.213,4.276,4.984,6.061c-98.684,84.01-226.225,134.567-365.875,134.567c-311.723,0-563.959-252.078-563.959-563.607
	C-17418.41,3316.706-17166.174,3064.26-16854.451,3064.26L-16854.451,3064.26z M-17060.016,3564.506
	c17.461,44.865-4.629,95.421-49.518,113.233c-44.889,17.449-95.48-4.641-112.93-49.506c-7.135-17.789-12.473-36.31-16.041-55.882
	c-3.908-19.232-5.693-38.802-5.693-57.693c0-85.438,34.551-163.059,90.842-219.31c55.93-55.907,133.6-90.435,219.453-90.435v-0.367
	c20.674,0,40.623,2.151,60.576,6.06c20.305,3.91,39.891,9.971,58.428,17.802c44.52,18.51,65.902,69.433,47.377,113.931
	c-18.521,44.508-69.824,65.51-114.357,47.354c-7.844-3.567-16.029-6.06-24.936-7.83c-8.555-1.772-17.461-2.493-27.088-2.493v-0.354
	c-37.043,0-70.885,15.307-95.824,39.88c-24.58,24.557-39.547,58.388-39.547,95.762c0,9.628,0.709,18.169,2.137,25.646
	C-17065.707,3548.49-17063.213,3556.687-17060.016,3564.506L-17060.016,3564.506z M-17015.836,3721.897
	c7.125-7.137,14.967-12.464,23.156-16.74h0.352l1.43-0.709l1.064-0.732h0.721l1.416-0.709h0.365
	c8.91-3.91,18.525-6.036,28.141-6.768h0.352h1.785h0.707h1.076h1.785l0,0c11.754,0,23.508,2.49,34.551,7.477h0.355l1.428,0.732
	l0.709,0.342l0.723,0.367c8.541,4.276,16.383,9.603,23.15,16.74l0,0l0,0l0,0c3.203,3.198,6.062,6.401,8.555,9.968l135.02,175.155
	c29.564,38.095,22.441,92.928-15.678,122.128c-38.119,29.542-92.621,22.432-122.199-15.663l-67.336-87.235l-67.332,87.235
	c-29.213,38.095-84.07,45.205-122.189,15.663c-38.119-29.2-45.242-84.033-15.674-122.128l135.018-175.155
	c2.137-3.227,4.631-5.717,7.123-8.552l0,0L-17015.836,3721.897L-17015.836,3721.897L-17015.836,3721.897z"/>
<path fill-rule="evenodd" clip-rule="evenodd" fill="#01D293" d="M-16406.984,3285.011
	c73.024,95.079,116.495,213.983,116.495,342.881c0,107.883-30.287,208.287-82.651,294.082l-262.207-340.365L-16406.984,3285.011z"/>
</svg>
