<?xml version="1.0" encoding="utf-8"?>
<!-- Generator: Adobe Illustrator 26.4.1, SVG Export Plug-In . SVG Version: 6.00 Build 0)  -->
<svg version="1.1" id="Capa_1" xmlns="http://www.w3.org/2000/svg" xmlns:xlink="http://www.w3.org/1999/xlink" x="0px" y="0px"
	 viewBox="0 0 1412.35 1080" style="enable-background:new 0 0 1412.35 1080;" xml:space="preserve">
<style type="text/css">
	.st0{fill:#FFFFFF;}
</style>
<g>
	<path class="st0" d="M495.58,487.32c13.89-11.11,27.81-22.19,41.66-33.35c5.84-4.7,11.27-9.95,17.37-14.27
		c7.81-5.53,10.16-13.01,10.16-22.04c-0.04-48.5,0.06-96.99,0.11-145.49c0-1.95,0-3.9,0-6.13c34.69,0,68.77,0,103.5,0
		c0,1.98,0,3.77,0,5.56c0,41.83,0.05,83.66-0.02,125.49c-0.04,18.49-0.56,36.98-0.41,55.47c0.06,7.32-2.62,13.07-7.88,17.56
		c-9.88,8.43-20.06,16.51-30.12,24.73c-1.4,1.15-2.82,2.27-4.65,3.75c2.53,1.29,4.54,2.44,6.65,3.37
		c24.24,10.77,35.99,30.11,36.63,55.93c0.64,25.8,0,51.64-0.14,77.46c-0.09,16.16-0.39,32.32-0.4,48.48
		c-0.04,84.83-0.05,169.66,0,254.48c0.02,29.49,0.23,58.98,0.35,88.48c0.01,1.97,0,3.94,0,6.75c-1.94-0.83-3.27-1.25-4.45-1.92
		c-29.64-16.9-59.21-33.95-88.96-50.66c-5.78-3.24-8.31-7.87-9.1-13.91c-0.43-3.3-0.67-6.64-0.67-9.96
		c-0.13-82.49-0.23-164.98-0.32-247.47c-0.05-42.82,0.24-85.64-0.42-128.45c-0.14-9.04-3.76-18.03-6.02-28.12
		c-8.78,6.97-16.48,12.95-24.05,19.1c-10.35,8.4-20.43,17.14-30.97,25.28c-6.01,4.64-8.57,10.58-8.54,17.7
		c0.17,39.15,0.58,78.3,0.76,117.45c0.16,37.66,0.15,75.33,0.18,112.99c0.02,26.99,0,53.98,0,81.16c-0.67,0-1.26,0.19-1.57-0.03
		c-23.36-16-46.85-31.82-66.57-52.48c-26.04-27.3-36.64-60-34.72-97.24c0.29-5.65,0.55-11.31,0.55-16.97
		c0.03-112.49,0.04-224.99,0.01-337.48c-0.01-18.83-0.1-37.65-0.45-56.48c-0.08-4.42-1.11-8.89-2.17-13.22
		c-1.27-5.22-4.3-8.97-9.43-11.48c-22.19-10.88-29.49-29.93-28.21-53.28c0.41-7.44,1.43-14.84,2.19-22.43c46.46,0,92.24,0,138.71,0
		c0,73.84,0,147.55,0,221.26C494.64,487.04,495.11,487.18,495.58,487.32z"/>
	<path class="st0" d="M903.73,348.08c-57.78,0-113.91,0-170.44,0c0-27.65,0-55.01,0-82.67c104.1,0,208,0,312.44,0
		c0.26,4.62,0.76,9.2,0.73,13.78c-0.06,10.48-0.32,20.95-0.61,31.42c-0.17,6.22-3.03,11.22-7.81,15.02
		c-4.16,3.31-8.29,6.82-12.91,9.36c-13.71,7.52-18.99,19.26-18.73,34.35c0.3,16.82,0.37,33.65,0.41,50.48
		c0.1,43.16,0.12,86.32,0.2,129.48c0.11,57.99,0.23,115.97,0.37,173.96c0.05,19.33,0.05,38.65,0.32,57.98
		c0.45,32.6-9.94,61.22-31.69,85.44c-19.03,21.2-38.34,42.31-62.23,58.22c-24.38,16.24-49.22,31.8-74.14,47.2
		c-33.57,20.74-67.4,41.04-101.13,61.52c-1.38,0.84-2.84,1.56-5.27,2.88c-0.48-12.75-1.26-24.68-1.31-36.62
		c-0.19-47.82-0.15-95.65-0.21-143.48c-0.04-30.66-0.05-61.32-0.2-91.98c-0.1-19.49-0.33-38.97-0.68-58.46
		c-0.22-12.44,4.66-22.04,14.45-29.71c22.56-17.66,44.85-35.66,67.3-53.45c6.35-5.03,12.89-9.83,20.25-15.43
		c0,83.2,0,165.22,0,248.06c3.03-0.95,5.41-1.5,7.63-2.42c34.4-14.36,56.28-39.01,61.55-76.58c1.36-9.66,0.65-19.62,0.84-29.44
		c0.07-3.83,0.01-7.67,0.01-11.5c0.1-68.49,0.16-136.97,0.31-205.46c0.12-53.32,0.36-106.64,0.54-159.95
		C903.75,362.96,903.73,355.83,903.73,348.08z"/>
	<path class="st0" d="M1046.25,209.28c-230.89,0-461.24,0-692.18,0c5.67-48.45,11.29-96.52,16.96-144.95c26.51,0,52.91,0,79.86,0
		c1.26,9.38,2.56,18.89,3.8,28.41c1.74,13.37,3.52,26.74,5.07,40.13c0.33,2.87,1.59,3.56,4.17,3.55
		c26.83-0.05,53.65-0.06,80.48,0.01c2.83,0.01,4-0.84,4.54-3.8c3.82-20.95,7.85-41.86,11.83-62.79c0.37-1.95,0.83-3.89,1.31-6.14
		c1.54-0.11,2.99-0.3,4.45-0.3c24.33-0.02,48.66,0.06,72.98-0.09c3.75-0.02,5.03,1.03,5.56,4.89c3.01,21.93,6.38,43.81,9.63,65.7
		c0.12,0.79,0.32,1.57,0.53,2.59c1.62,0.09,3.09,0.25,4.56,0.25c26.83,0.01,53.65-0.04,80.48,0.07c3.55,0.01,5.12-0.62,5.68-4.72
		c3.06-22.58,6.56-45.1,9.95-67.88c27.59,0,55.01,0,82.69,0c4.49,24.13,8.95,48.13,13.44,72.3c29.27,0,58.21,0,87.77,0
		c1.31-9.71,2.62-19.39,3.91-29.08c1.77-13.37,3.58-26.73,5.21-40.11c0.39-3.19,1.81-4.01,4.86-4c23.66,0.11,47.32,0.1,70.98,0.01
		c2.98-0.01,4.51,0.65,4.9,3.96c5.37,46.3,10.86,92.59,16.31,138.88C1046.1,206.99,1046.14,207.8,1046.25,209.28z"/>
	<path class="st0" d="M1045.73,246.69c-229.94,0-459.66,0-689.78,0c0-6.57,0-12.94,0-19.93c1.87,0,3.65,0,5.43,0
		c226.11,0,452.22,0.02,678.33-0.11c4.89,0,6.43,1.48,6.09,6.16C1045.47,237.26,1045.73,241.74,1045.73,246.69z"/>
</g>
</svg>
