<?xml version="1.0" encoding="utf-8"?>
<!-- Generator: Adobe Illustrator 26.4.1, SVG Export Plug-In . SVG Version: 6.00 Build 0)  -->
<svg version="1.1" id="Capa_1" xmlns="http://www.w3.org/2000/svg" xmlns:xlink="http://www.w3.org/1999/xlink" x="0px" y="0px"
	 viewBox="0 0 708.34 746.35" style="enable-background:new 0 0 708.34 746.35;" xml:space="preserve">
<style type="text/css">
	.st0{fill:#FFFFFF;}
</style>
<g>
	<path class="st0" d="M104.39,67.54c44.18,27.29,87.26,53.89,130.6,80.66c7.71-3.11,15.41-6.13,23.01-9.3
		c25.56-10.66,51.22-21.17,76.57-32.16c13.41-5.81,25.86-5.55,39.29,0.17c32.39,13.79,65.13,27.02,97.74,40.47
		c0.49,0.2,1.03,0.32,2.08,0.64c42.96-26.42,86.13-52.97,130.29-80.12c0.09,2.59,0.2,4.33,0.2,6.07
		c0.01,65.77,0.01,131.55,0.01,197.32c0,59.5-0.02,119.01,0.01,178.51c0.02,32.73,0.12,65.47,0.17,98.2c0,1.83,0.02,3.67-0.11,5.5
		c-0.54,7.48-4.37,13.54-11.92,17.82c-2.9,1.65-5.99,3.1-9.14,4.41c-69.35,29-138.72,57.96-208.07,86.96
		c-8.84,3.7-17.98,6.13-27.94,4.17c-4.48-0.88-8.94-2.2-13.05-3.91c-71.73-29.87-143.37-59.89-215.14-89.7
		c-9.94-4.13-15.1-10.07-14.59-19.24c0.06-1.07,0.01-2.14,0.01-3.21c0-158.78,0-317.55,0-476.33
		C104.39,72.52,104.39,70.6,104.39,67.54z M122.67,94.42c-0.46,1.3-0.95,2.12-1.03,2.97c-0.52,5.18-1.34,10.36-1.35,15.54
		c-0.11,122.52-0.12,245.04-0.16,367.56c-0.01,21.57,0.03,43.13-0.15,64.7c-0.08,9.12,4.55,15.88,13.9,20.57
		c2.7,1.35,5.52,2.55,8.34,3.72c46.34,19.27,92.71,38.48,139.03,57.79c17.76,7.41,35.4,15,53.07,22.56
		c7.78,3.33,15.96,5.61,24.69,4.1c5.74-1,11.42-2.8,16.68-4.98c42.54-17.64,84.95-35.5,127.45-53.21
		c22.41-9.34,44.89-18.57,67.41-27.74c12.26-4.99,18.27-12.68,18.06-24.15c-0.4-21.41-0.18-42.83-0.2-64.24
		c-0.06-56.75-0.12-113.49-0.15-170.24c-0.03-65.31-0.01-130.63,0.01-195.94c0-6.1-1.21-12.05-2.8-18.72
		c-37.31,22.73-74.02,45.09-110.62,67.39c-3.01-1.22-5.51-2.21-8-3.24c-35.94-14.81-71.91-29.58-107.78-44.51
		c-3.55-1.48-6.25-1.43-9.76,0.03c-36.54,15.19-73.18,30.24-109.79,45.32c-1.96,0.81-3.94,1.59-5.96,2.4
		C196.55,139.51,159.81,117.09,122.67,94.42z"/>
	<path class="st0" d="M334.62,157.04c0,5.3,0.02,9.87,0,14.45c-0.24,40.07-0.62,80.14-0.66,120.21
		c-0.01,10.31-3.86,19.18-11.79,26.99c-13.71,13.51-27.51,26.97-41.21,40.49c-8.68,8.57-17.26,17.22-25.97,25.92
		c1.23,1.41,1.98,2.43,2.92,3.33c19.5,18.7,38.91,37.47,58.57,56.06c12.13,11.46,18.64,24.51,18.33,39.76
		c-0.34,16.67-0.87,33.33-0.88,50c-0.02,25.54,0.34,51.08,0.54,76.62c0.01,1.67,0,3.35,0,5.78c-1.99-0.66-3.47-1.03-4.82-1.61
		c-19.51-8.3-38.95-16.7-58.53-24.87c-3.33-1.39-4.43-2.96-4.42-5.99c0.15-28.45-0.34-56.91,0.24-85.35
		c0.36-17.62-7.64-31.8-22.79-43.66c-4.03-3.15-8.6-5.84-12.98-8.69c-0.8-0.52-1.85-0.8-3.43-1.45c0,42.42,0,84.25,0,126.46
		c-1.4-0.32-2.31-0.39-3.07-0.71c-18.03-7.65-35.93-15.5-54.1-22.91c-7.77-3.17-10.64-8.15-10.75-14.76
		c-0.11-6.27-0.22-12.54-0.22-18.81c-0.06-79.08-0.12-158.16-0.15-237.23c-0.01-13.31,0.09-26.61,0.14-39.92
		c0-0.61,0-1.22,0.01-1.84c0.02-6.21,2.42-10.5,10.21-13.43c17.58-6.63,34.58-14.29,51.82-21.52c1.29-0.54,2.62-1.01,4.58-1.76
		c0,41.74,0,82.94,0,123.96c5.14,1.84,5.16,1.85,8-0.57c6.85-5.84,13.87-11.55,20.46-17.57c7.14-6.52,11.83-14.09,12.45-23.03
		c0.17-2.43-0.05-4.88-0.06-7.33c-0.09-30.28-0.18-60.56-0.25-90.85c0-0.45,0.19-0.9,0.44-1.99
		C289.16,173.37,311.42,165.37,334.62,157.04z"/>
	<path class="st0" d="M392.75,161.74c1.14,0.39,2.33,0.72,3.43,1.18c45.7,18.95,91.39,37.92,137.12,56.84
		c4.8,1.99,8.71,4.64,11.55,8.39c2.41,3.19,3.67,6.58,3.66,10.41c-0.04,12.69,0.14,25.39,0.19,38.09c0.1,25.24,0.2,50.48,0.23,75.71
		c0.04,31.51,0.07,63.02-0.01,94.52c-0.07,27.99-0.32,55.98-0.44,83.97c-0.04,8.44-4.45,14.64-13.63,18.51
		c-42.07,17.74-84.13,35.49-126.2,53.22c-5.96,2.51-11.85,5.18-17.97,7.4c-4,1.46-8.37,2.25-13.18,3.5c0-75.23,0-149.64,0-224.38
		c21.16,0,42.28,0,64.05,0c0,47.29,0,94.49,0,142.17c1.94-0.5,3.18-0.7,4.29-1.13c10.24-4.03,20.42-8.17,30.7-12.13
		c2.72-1.05,4.23-2.32,3.74-4.87c-0.14-0.75-0.02-1.53-0.02-2.29c0-84.13-0.03-168.27,0.09-252.4c0.01-3.76-1.24-6.6-4.1-9.53
		c-27.05-27.67-53.94-55.46-80.86-83.22c-1.09-1.13-2.09-2.32-3.13-3.49C392.41,162.05,392.58,161.9,392.75,161.74z"/>
	<path class="st0" d="M161.11,220.7c0-22.1,0-43.24,0-64.4c0.1-0.06,0.24-0.18,0.41-0.23c0.15-0.05,0.4-0.08,0.5-0.02
		c17.66,10.93,35.32,21.86,52.96,32.81c0.86,0.54,1.62,1.19,2.87,2.13C198.97,200.88,180.45,210.58,161.11,220.7z"/>
	<path class="st0" d="M547.18,155.45c0,21.84,0,42.83,0,63.81c-3.63-0.59-49.98-23.86-56.47-28.45
		C509.34,179.15,527.88,167.54,547.18,155.45z"/>
</g>
</svg>
