<?xml version="1.0" encoding="utf-8"?>
<!-- Generator: Adobe Illustrator 26.4.1, SVG Export Plug-In . SVG Version: 6.00 Build 0)  -->
<svg version="1.1" id="Capa_1" xmlns="http://www.w3.org/2000/svg" xmlns:xlink="http://www.w3.org/1999/xlink" x="0px" y="0px"
	 viewBox="0 0 732.52 738.78" style="enable-background:new 0 0 732.52 738.78;" xml:space="preserve">
<style type="text/css">
	.st0{fill:#FFFFFF;}
</style>
<g>
	<path class="st0" d="M229.72,339.42c9.49-7.63,18.99-15.23,28.45-22.89c3.99-3.23,7.7-6.83,11.87-9.79
		c5.34-3.79,6.94-8.93,6.94-15.13c-0.02-33.29,0.04-66.57,0.07-99.86c0-1.34,0-2.68,0-4.2c23.69,0,46.97,0,70.69,0
		c0,1.36,0,2.58,0,3.81c0,28.71,0.04,57.42-0.02,86.13c-0.02,12.69-0.38,25.38-0.28,38.07c0.04,5.02-1.79,8.97-5.38,12.05
		c-6.75,5.79-13.7,11.33-20.57,16.97c-0.96,0.79-1.92,1.56-3.18,2.57c1.73,0.89,3.1,1.67,4.54,2.32
		c16.55,7.39,24.58,20.66,25.02,38.39c0.44,17.71,0,35.44-0.09,53.17c-0.06,11.09-0.27,22.18-0.28,33.27
		c-0.03,58.22-0.03,116.45,0,174.67c0.01,20.24,0.16,40.48,0.24,60.73c0.01,1.35,0,2.7,0,4.63c-1.33-0.57-2.23-0.86-3.04-1.32
		c-20.25-11.6-40.44-23.31-60.76-34.77c-3.95-2.23-5.67-5.4-6.21-9.55c-0.29-2.26-0.46-4.56-0.46-6.84
		c-0.09-56.62-0.15-113.24-0.22-169.86c-0.03-29.39,0.16-58.78-0.29-88.17c-0.1-6.2-2.57-12.37-4.11-19.3
		c-6,4.78-11.25,8.89-16.42,13.11c-7.07,5.76-13.95,11.76-21.15,17.35c-4.1,3.18-5.85,7.26-5.83,12.15
		c0.11,26.87,0.4,53.74,0.52,80.61c0.11,25.85,0.1,51.7,0.12,77.55c0.02,18.53,0,37.05,0,55.71c-0.46,0-0.86,0.13-1.07-0.02
		c-15.96-10.98-32-21.84-45.47-36.02c-17.79-18.74-25.02-41.18-23.71-66.74c0.2-3.88,0.37-7.76,0.37-11.65
		c0.02-77.21,0.03-154.42,0-231.64c0-12.92-0.07-25.84-0.31-38.76c-0.06-3.04-0.76-6.1-1.48-9.07c-0.87-3.58-2.94-6.15-6.44-7.88
		c-15.16-7.47-20.14-20.54-19.27-36.57c0.28-5.11,0.98-10.19,1.5-15.39c31.73,0,63,0,94.73,0c0,50.68,0,101.27,0,151.86
		C229.08,339.22,229.4,339.32,229.72,339.42z"/>
	<path class="st0" d="M508.48,243.85c-39.46,0-77.8,0-116.41,0c0-18.98,0-37.76,0-56.75c71.1,0,142.06,0,213.39,0
		c0.18,3.17,0.52,6.31,0.5,9.46c-0.04,7.19-0.22,14.38-0.42,21.57c-0.12,4.27-2.07,7.7-5.33,10.31c-2.84,2.27-5.66,4.68-8.82,6.42
		c-9.36,5.16-12.97,13.22-12.79,23.58c0.2,11.55,0.25,23.1,0.28,34.65c0.07,29.62,0.08,59.25,0.14,88.87
		c0.07,39.8,0.16,79.6,0.26,119.4c0.03,13.26,0.04,26.53,0.22,39.79c0.3,22.37-6.79,42.02-21.64,58.65
		c-13,14.55-26.19,29.04-42.5,39.96c-16.65,11.15-33.62,21.83-50.64,32.4c-22.92,14.24-46.03,28.17-69.07,42.23
		c-0.94,0.58-1.94,1.07-3.6,1.98c-0.33-8.75-0.86-16.94-0.9-25.13c-0.13-32.83-0.1-65.65-0.15-98.48
		c-0.03-21.04-0.04-42.09-0.14-63.13c-0.07-13.38-0.22-26.75-0.46-40.12c-0.15-8.54,3.18-15.13,9.87-20.39
		c15.41-12.12,30.63-24.47,45.97-36.69c4.34-3.45,8.8-6.75,13.83-10.59c0,57.1,0,113.4,0,170.26c2.07-0.65,3.7-1.03,5.21-1.66
		c23.5-9.85,38.44-26.77,42.04-52.56c0.93-6.63,0.44-13.46,0.57-20.2c0.05-2.63,0.01-5.26,0.01-7.89
		c0.07-47.01,0.11-94.01,0.21-141.02c0.08-36.6,0.24-73.19,0.37-109.79C508.49,254.06,508.48,249.17,508.48,243.85z"/>
	<path class="st0" d="M605.82,148.58c-157.7,0-315.02,0-472.75,0c3.87-33.25,7.71-66.25,11.58-99.49c18.11,0,36.14,0,54.55,0
		c0.86,6.44,1.75,12.97,2.6,19.5c1.19,9.18,2.4,18.35,3.47,27.54c0.23,1.97,1.09,2.44,2.85,2.44c18.32-0.03,36.64-0.04,54.97,0.01
		c1.93,0.01,2.73-0.58,3.1-2.61c2.61-14.38,5.36-28.73,8.08-43.1c0.25-1.34,0.57-2.67,0.89-4.21c1.05-0.07,2.05-0.2,3.04-0.21
		c16.62-0.01,33.23,0.04,49.85-0.06c2.56-0.02,3.43,0.71,3.8,3.36c2.05,15.05,4.36,30.07,6.58,45.1c0.08,0.54,0.22,1.08,0.36,1.77
		c1.11,0.06,2.11,0.17,3.11,0.17c18.32,0.01,36.65-0.03,54.97,0.05c2.43,0.01,3.5-0.43,3.88-3.24c2.09-15.5,4.48-30.96,6.8-46.59
		c18.84,0,37.57,0,56.48,0c3.06,16.56,6.11,33.04,9.18,49.62c19.99,0,39.76,0,59.94,0c0.89-6.67,1.79-13.31,2.67-19.96
		c1.21-9.17,2.45-18.34,3.56-27.53c0.26-2.19,1.24-2.75,3.32-2.75c16.16,0.07,32.32,0.07,48.48,0.01c2.04-0.01,3.08,0.44,3.34,2.72
		c3.67,31.78,7.42,63.55,11.14,95.32C605.72,147.01,605.74,147.57,605.82,148.58z"/>
	<path class="st0" d="M605.46,174.26c-157.05,0-313.94,0-471.11,0c0-4.51,0-8.88,0-13.68c1.28,0,2.49,0,3.71,0
		c154.43,0,308.86,0.01,463.29-0.07c3.34,0,4.39,1.02,4.16,4.23C605.29,167.78,605.46,170.86,605.46,174.26z"/>
</g>
</svg>
